<?xml version="1.0" encoding="UTF-8" standalone="no"?><!-- Generator: Gravit.io --><svg xmlns="http://www.w3.org/2000/svg" xmlns:xlink="http://www.w3.org/1999/xlink" style="isolation:isolate" viewBox="0 0 75.237 48.125" width="75.237pt" height="48.125pt"><path d=" M 13.723 46.047 L 13.723 46.047 L 10.665 46.411 L 10.665 46.411 Q 10.288 46.456 10.099 46.308 L 10.099 46.308 L 10.099 46.308 Q 9.91 46.159 9.865 45.782 L 9.865 45.782 L 9.734 44.689 L 9.734 44.689 Q 7.391 44.626 6.462 43.68 L 6.462 43.68 L 6.462 43.68 Q 5.533 42.733 5.356 41.244 L 5.356 41.244 L 4.569 34.65 L 4.569 34.65 Q 4.461 33.737 4.64 32.96 L 4.64 32.96 L 4.64 32.96 Q 4.819 32.183 5.44 31.565 L 5.44 31.565 L 5.44 31.565 Q 6.062 30.948 7.237 30.505 L 7.237 30.505 L 7.237 30.505 Q 8.413 30.063 10.26 29.843 L 10.26 29.843 L 10.26 29.843 Q 12.107 29.622 13.344 29.777 L 13.344 29.777 L 13.344 29.777 Q 14.581 29.932 15.33 30.386 L 15.33 30.386 L 15.33 30.386 Q 16.079 30.841 16.436 31.553 L 16.436 31.553 L 16.436 31.553 Q 16.793 32.266 16.902 33.18 L 16.902 33.18 L 17.688 39.773 L 17.688 39.773 Q 17.778 40.528 17.677 41.194 L 17.677 41.194 L 17.677 41.194 Q 17.575 41.861 17.197 42.41 L 17.197 42.41 L 17.197 42.41 Q 16.819 42.958 16.097 43.407 L 16.097 43.407 L 16.097 43.407 Q 15.375 43.856 14.223 44.154 L 14.223 44.154 L 14.353 45.246 L 14.353 45.246 Q 14.398 45.624 14.249 45.813 L 14.249 45.813 L 14.249 45.813 Q 14.101 46.002 13.723 46.047 Z  M 9.165 34.847 L 9.812 40.269 L 9.812 40.269 Q 9.859 40.666 10.189 40.899 L 10.189 40.899 L 10.189 40.899 Q 10.519 41.131 11.591 41.004 L 11.591 41.004 L 11.591 41.004 Q 12.664 40.876 12.929 40.572 L 12.929 40.572 L 12.929 40.572 Q 13.195 40.268 13.148 39.871 L 13.148 39.871 L 12.502 34.45 L 12.502 34.45 Q 12.457 34.072 12.127 33.84 L 12.127 33.84 L 12.127 33.84 Q 11.797 33.607 10.724 33.735 L 10.724 33.735 L 10.724 33.735 Q 9.652 33.863 9.386 34.167 L 9.386 34.167 L 9.386 34.167 Q 9.12 34.47 9.165 34.847 L 9.165 34.847 L 9.165 34.847 Z  M 31.233 28.369 L 32.406 38.199 L 32.406 38.199 Q 32.514 39.113 32.335 39.89 L 32.335 39.89 L 32.335 39.89 Q 32.156 40.666 31.533 41.274 L 31.533 41.274 L 31.533 41.274 Q 30.911 41.882 29.755 42.322 L 29.755 42.322 L 29.755 42.322 Q 28.599 42.762 26.752 42.982 L 26.752 42.982 L 26.752 42.982 Q 24.905 43.203 23.678 43.047 L 23.678 43.047 L 23.678 43.047 Q 22.451 42.891 21.703 42.446 L 21.703 42.446 L 21.703 42.446 Q 20.955 42.002 20.598 41.289 L 20.598 41.289 L 20.598 41.289 Q 20.241 40.576 20.132 39.663 L 20.132 39.663 L 18.96 29.832 L 18.96 29.832 Q 18.915 29.455 19.064 29.266 L 19.064 29.266 L 19.064 29.266 Q 19.213 29.077 19.59 29.032 L 19.59 29.032 L 22.708 28.66 L 22.708 28.66 Q 23.085 28.615 23.274 28.764 L 23.274 28.764 L 23.274 28.764 Q 23.463 28.913 23.508 29.29 L 23.508 29.29 L 24.588 38.346 L 24.588 38.346 Q 24.635 38.743 24.965 38.976 L 24.965 38.976 L 24.965 38.976 Q 25.295 39.208 26.328 39.085 L 26.328 39.085 L 26.328 39.085 Q 27.38 38.96 27.646 38.656 L 27.646 38.656 L 27.646 38.656 Q 27.912 38.352 27.865 37.955 L 27.865 37.955 L 26.785 28.899 L 26.785 28.899 Q 26.74 28.522 26.889 28.333 L 26.889 28.333 L 26.889 28.333 Q 27.037 28.144 27.415 28.099 L 27.415 28.099 L 30.433 27.739 L 30.433 27.739 Q 30.81 27.694 30.999 27.843 L 30.999 27.843 L 30.999 27.843 Q 31.188 27.992 31.233 28.369 L 31.233 28.369 L 31.233 28.369 Z  M 45.424 40.454 L 45.424 40.454 L 36.209 41.553 L 36.209 41.553 Q 35.832 41.598 35.643 41.449 L 35.643 41.449 L 35.643 41.449 Q 35.454 41.3 35.409 40.923 L 35.409 40.923 L 33.875 28.054 L 33.875 28.054 Q 33.83 27.677 33.978 27.488 L 33.978 27.488 L 33.978 27.488 Q 34.127 27.299 34.504 27.254 L 34.504 27.254 L 43.719 26.155 L 43.719 26.155 Q 44.096 26.11 44.285 26.259 L 44.285 26.259 L 44.285 26.259 Q 44.474 26.407 44.519 26.785 L 44.519 26.785 L 44.796 29.108 L 44.796 29.108 Q 44.841 29.486 44.693 29.675 L 44.693 29.675 L 44.693 29.675 Q 44.544 29.863 44.167 29.908 L 44.167 29.908 L 38.685 30.562 L 38.868 32.091 L 42.74 31.629 L 42.74 31.629 Q 43.118 31.584 43.307 31.733 L 43.307 31.733 L 43.307 31.733 Q 43.496 31.882 43.541 32.259 L 43.541 32.259 L 43.794 34.384 L 43.794 34.384 Q 43.839 34.761 43.69 34.95 L 43.69 34.95 L 43.69 34.95 Q 43.542 35.139 43.164 35.184 L 43.164 35.184 L 39.292 35.646 L 39.495 37.354 L 44.976 36.7 L 44.976 36.7 Q 45.354 36.655 45.543 36.804 L 45.543 36.804 L 45.543 36.804 Q 45.732 36.953 45.777 37.33 L 45.777 37.33 L 46.054 39.654 L 46.054 39.654 Q 46.099 40.031 45.95 40.22 L 45.95 40.22 L 45.95 40.22 Q 45.801 40.409 45.424 40.454 Z  M 55.115 39.298 L 55.115 39.298 L 48.84 40.046 L 48.84 40.046 Q 48.463 40.091 48.274 39.943 L 48.274 39.943 L 48.274 39.943 Q 48.085 39.794 48.04 39.417 L 48.04 39.417 L 47.763 37.093 L 47.763 37.093 Q 47.718 36.716 47.866 36.527 L 47.866 36.527 L 47.866 36.527 Q 48.015 36.338 48.392 36.293 L 48.392 36.293 L 53.734 35.656 L 53.734 35.656 Q 53.993 35.625 54.102 35.441 L 54.102 35.441 L 54.102 35.441 Q 54.211 35.257 54.182 35.019 L 54.182 35.019 L 54.182 35.019 Q 54.142 34.681 53.994 34.537 L 53.994 34.537 L 53.994 34.537 Q 53.846 34.394 53.585 34.405 L 53.585 34.405 L 50.557 34.343 L 50.557 34.343 Q 49.143 34.31 48.214 33.696 L 48.214 33.696 L 48.214 33.696 Q 47.284 33.082 47.085 31.413 L 47.085 31.413 L 46.837 29.328 L 46.837 29.328 Q 46.635 27.64 47.62 26.606 L 47.62 26.606 L 47.62 26.606 Q 48.604 25.572 50.531 25.343 L 50.531 25.343 L 56.091 24.68 L 56.091 24.68 Q 56.469 24.635 56.658 24.783 L 56.658 24.783 L 56.658 24.783 Q 56.847 24.932 56.892 25.309 L 56.892 25.309 L 57.173 27.673 L 57.173 27.673 Q 57.218 28.05 57.07 28.239 L 57.07 28.239 L 57.07 28.239 Q 56.921 28.428 56.544 28.473 L 56.544 28.473 L 51.916 29.025 L 51.916 29.025 Q 51.658 29.055 51.539 29.241 L 51.539 29.241 L 51.539 29.241 Q 51.421 29.426 51.451 29.684 L 51.451 29.684 L 51.451 29.684 Q 51.482 29.942 51.642 30.105 L 51.642 30.105 L 51.642 30.105 Q 51.803 30.267 52.063 30.256 L 52.063 30.256 L 55.07 30.3 L 55.07 30.3 Q 56.484 30.333 57.423 30.946 L 57.423 30.946 L 57.423 30.946 Q 58.362 31.559 58.561 33.227 L 58.561 33.227 L 58.809 35.313 L 58.809 35.313 Q 59.011 37.001 58.016 38.036 L 58.016 38.036 L 58.016 38.036 Q 57.022 39.071 55.115 39.298 Z  M 67.944 37.768 L 67.944 37.768 L 64.727 38.152 L 64.727 38.152 Q 64.35 38.197 64.161 38.048 L 64.161 38.048 L 64.161 38.048 Q 63.972 37.9 63.927 37.522 L 63.927 37.522 L 62.764 27.771 L 59.845 28.119 L 59.845 28.119 Q 59.468 28.164 59.279 28.016 L 59.279 28.016 L 59.279 28.016 Q 59.09 27.867 59.045 27.49 L 59.045 27.49 L 58.758 25.087 L 58.758 25.087 Q 58.713 24.709 58.862 24.521 L 58.862 24.521 L 58.862 24.521 Q 59.011 24.332 59.388 24.287 L 59.388 24.287 L 69.874 23.036 L 69.874 23.036 Q 70.251 22.991 70.44 23.14 L 70.44 23.14 L 70.44 23.14 Q 70.629 23.289 70.674 23.666 L 70.674 23.666 L 70.96 26.069 L 70.96 26.069 Q 71.005 26.446 70.857 26.635 L 70.857 26.635 L 70.857 26.635 Q 70.708 26.824 70.331 26.869 L 70.331 26.869 L 67.411 27.217 L 68.574 36.968 L 68.574 36.968 Q 68.619 37.345 68.47 37.534 L 68.47 37.534 L 68.47 37.534 Q 68.322 37.723 67.944 37.768 Z  M 18.058 25.388 L 18.058 25.388 L 14.999 25.753 L 14.999 25.753 Q 14.622 25.798 14.433 25.649 L 14.433 25.649 L 14.433 25.649 Q 14.244 25.5 14.199 25.123 L 14.199 25.123 L 14.069 24.031 L 14.069 24.031 Q 11.725 23.968 10.796 23.021 L 10.796 23.021 L 10.796 23.021 Q 9.868 22.074 9.69 20.585 L 9.69 20.585 L 8.904 13.992 L 8.904 13.992 Q 8.795 13.078 8.974 12.301 L 8.974 12.301 L 8.974 12.301 Q 9.154 11.525 9.775 10.907 L 9.775 10.907 L 9.775 10.907 Q 10.396 10.289 11.572 9.847 L 11.572 9.847 L 11.572 9.847 Q 12.748 9.404 14.595 9.184 L 14.595 9.184 L 14.595 9.184 Q 16.442 8.964 17.679 9.118 L 17.679 9.118 L 17.679 9.118 Q 18.916 9.273 19.665 9.728 L 19.665 9.728 L 19.665 9.728 Q 20.414 10.182 20.771 10.895 L 20.771 10.895 L 20.771 10.895 Q 21.128 11.608 21.237 12.521 L 21.237 12.521 L 22.023 19.114 L 22.023 19.114 Q 22.113 19.869 22.011 20.536 L 22.011 20.536 L 22.011 20.536 Q 21.909 21.203 21.531 21.751 L 21.531 21.751 L 21.531 21.751 Q 21.154 22.3 20.432 22.748 L 20.432 22.748 L 20.432 22.748 Q 19.71 23.197 18.557 23.496 L 18.557 23.496 L 18.687 24.588 L 18.687 24.588 Q 18.732 24.965 18.584 25.154 L 18.584 25.154 L 18.584 25.154 Q 18.435 25.343 18.058 25.388 Z  M 13.5 14.189 L 14.146 19.611 L 14.146 19.611 Q 14.193 20.008 14.523 20.24 L 14.523 20.24 L 14.523 20.24 Q 14.853 20.473 15.926 20.345 L 15.926 20.345 L 15.926 20.345 Q 16.998 20.217 17.264 19.914 L 17.264 19.914 L 17.264 19.914 Q 17.53 19.61 17.482 19.213 L 17.482 19.213 L 16.836 13.791 L 16.836 13.791 Q 16.791 13.414 16.461 13.181 L 16.461 13.181 L 16.461 13.181 Q 16.131 12.949 15.059 13.077 L 15.059 13.077 L 15.059 13.077 Q 13.986 13.204 13.721 13.508 L 13.721 13.508 L 13.721 13.508 Q 13.455 13.812 13.5 14.189 L 13.5 14.189 L 13.5 14.189 Z  M 35.568 7.71 L 36.74 17.541 L 36.74 17.541 Q 36.849 18.454 36.67 19.231 L 36.67 19.231 L 36.67 19.231 Q 36.49 20.008 35.868 20.616 L 35.868 20.616 L 35.868 20.616 Q 35.246 21.224 34.089 21.664 L 34.089 21.664 L 34.089 21.664 Q 32.933 22.104 31.087 22.324 L 31.087 22.324 L 31.087 22.324 Q 29.24 22.544 28.013 22.388 L 28.013 22.388 L 28.013 22.388 Q 26.785 22.232 26.038 21.788 L 26.038 21.788 L 26.038 21.788 Q 25.29 21.343 24.933 20.631 L 24.933 20.631 L 24.933 20.631 Q 24.576 19.918 24.467 19.004 L 24.467 19.004 L 23.295 9.174 L 23.295 9.174 Q 23.25 8.797 23.398 8.608 L 23.398 8.608 L 23.398 8.608 Q 23.547 8.419 23.924 8.374 L 23.924 8.374 L 27.042 8.002 L 27.042 8.002 Q 27.42 7.957 27.609 8.106 L 27.609 8.106 L 27.609 8.106 Q 27.797 8.254 27.842 8.632 L 27.842 8.632 L 28.922 17.687 L 28.922 17.687 Q 28.97 18.085 29.3 18.317 L 29.3 18.317 L 29.3 18.317 Q 29.629 18.55 30.662 18.427 L 30.662 18.427 L 30.662 18.427 Q 31.715 18.301 31.981 17.998 L 31.981 17.998 L 31.981 17.998 Q 32.246 17.694 32.199 17.297 L 32.199 17.297 L 31.119 8.241 L 31.119 8.241 Q 31.074 7.864 31.223 7.675 L 31.223 7.675 L 31.223 7.675 Q 31.372 7.486 31.749 7.441 L 31.749 7.441 L 34.768 7.081 L 34.768 7.081 Q 35.145 7.036 35.334 7.184 L 35.334 7.184 L 35.334 7.184 Q 35.523 7.333 35.568 7.71 L 35.568 7.71 L 35.568 7.71 Z  M 48.686 19.923 L 40.226 20.932 L 40.226 20.932 Q 39.849 20.977 39.66 20.828 L 39.66 20.828 L 39.66 20.828 Q 39.471 20.68 39.426 20.302 L 39.426 20.302 L 39.144 17.939 L 39.144 17.939 Q 39.099 17.562 39.248 17.373 L 39.248 17.373 L 39.248 17.373 Q 39.396 17.184 39.774 17.139 L 39.774 17.139 L 41.74 16.904 L 40.944 10.232 L 38.978 10.466 L 38.978 10.466 Q 38.601 10.511 38.412 10.362 L 38.412 10.362 L 38.412 10.362 Q 38.223 10.214 38.178 9.836 L 38.178 9.836 L 37.891 7.433 L 37.891 7.433 Q 37.846 7.056 37.995 6.867 L 37.995 6.867 L 37.995 6.867 Q 38.144 6.678 38.521 6.633 L 38.521 6.633 L 46.981 5.624 L 46.981 5.624 Q 47.358 5.579 47.547 5.728 L 47.547 5.728 L 47.547 5.728 Q 47.736 5.877 47.781 6.254 L 47.781 6.254 L 48.068 8.657 L 48.068 8.657 Q 48.113 9.034 47.964 9.223 L 47.964 9.223 L 47.964 9.223 Q 47.815 9.412 47.438 9.457 L 47.438 9.457 L 45.512 9.687 L 46.307 16.36 L 48.234 16.13 L 48.234 16.13 Q 48.611 16.085 48.8 16.234 L 48.8 16.234 L 48.8 16.234 Q 48.989 16.382 49.034 16.76 L 49.034 16.76 L 49.316 19.123 L 49.316 19.123 Q 49.361 19.5 49.212 19.689 L 49.212 19.689 L 49.212 19.689 Q 49.063 19.878 48.686 19.923 L 48.686 19.923 L 48.686 19.923 Z  M 61.952 18.341 L 61.952 18.341 L 52.102 19.516 L 52.102 19.516 Q 51.725 19.561 51.536 19.412 L 51.536 19.412 L 51.536 19.412 Q 51.347 19.263 51.302 18.886 L 51.302 18.886 L 50.984 16.225 L 50.984 16.225 Q 50.939 15.848 51.024 15.545 L 51.024 15.545 L 51.024 15.545 Q 51.109 15.243 51.334 14.934 L 51.334 14.934 L 55.461 8.501 L 51.211 9.007 L 51.211 9.007 Q 50.834 9.052 50.645 8.904 L 50.645 8.904 L 50.645 8.904 Q 50.456 8.755 50.411 8.378 L 50.411 8.378 L 50.125 5.975 L 50.125 5.975 Q 50.08 5.597 50.228 5.408 L 50.228 5.408 L 50.228 5.408 Q 50.377 5.219 50.754 5.174 L 50.754 5.174 L 59.89 4.085 L 59.89 4.085 Q 60.267 4.04 60.456 4.189 L 60.456 4.189 L 60.456 4.189 Q 60.645 4.337 60.69 4.715 L 60.69 4.715 L 61.043 7.674 L 61.043 7.674 Q 61.09 8.071 61.005 8.373 L 61.005 8.373 L 61.005 8.373 Q 60.92 8.675 60.695 8.984 L 60.695 8.984 L 56.753 15.114 L 61.5 14.548 L 61.5 14.548 Q 61.877 14.503 62.066 14.652 L 62.066 14.652 L 62.066 14.652 Q 62.255 14.8 62.3 15.178 L 62.3 15.178 L 62.582 17.541 L 62.582 17.541 Q 62.627 17.918 62.478 18.107 L 62.478 18.107 L 62.478 18.107 Q 62.329 18.296 61.952 18.341 Z " fill="rgb(0,0,0)"/></svg>