<?xml version="1.0" encoding="UTF-8" standalone="no"?><!-- Generator: Gravit.io --><svg xmlns="http://www.w3.org/2000/svg" xmlns:xlink="http://www.w3.org/1999/xlink" style="isolation:isolate" viewBox="0 0 1024 1024" width="1024pt" height="1024pt"><path d=" M 259.322 752.028 L 259.322 752.028 L 225.773 756.028 L 225.773 756.028 Q 221.634 756.522 219.562 754.891 L 219.562 754.891 L 219.562 754.891 Q 217.489 753.26 216.996 749.121 L 216.996 749.121 L 215.567 737.139 L 215.567 737.139 Q 189.855 736.449 179.669 726.064 L 179.669 726.064 L 179.669 726.064 Q 169.482 715.679 167.534 699.341 L 167.534 699.341 L 158.909 627.015 L 158.909 627.015 Q 157.715 616.994 159.681 608.474 L 159.681 608.474 L 159.681 608.474 Q 161.648 599.954 168.463 593.176 L 168.463 593.176 L 168.463 593.176 Q 175.277 586.398 188.176 581.546 L 188.176 581.546 L 188.176 581.546 Q 201.075 576.694 221.335 574.278 L 221.335 574.278 L 221.335 574.278 Q 241.595 571.862 255.164 573.558 L 255.164 573.558 L 255.164 573.558 Q 268.733 575.254 276.95 580.24 L 276.95 580.24 L 276.95 580.24 Q 285.168 585.226 289.083 593.044 L 289.083 593.044 L 289.083 593.044 Q 292.998 600.863 294.193 610.884 L 294.193 610.884 L 302.817 683.209 L 302.817 683.209 Q 303.804 691.487 302.688 698.801 L 302.688 698.801 L 302.688 698.801 Q 301.571 706.115 297.428 712.133 L 297.428 712.133 L 297.428 712.133 Q 293.285 718.15 285.365 723.072 L 285.365 723.072 L 285.365 723.072 Q 277.446 727.993 264.801 731.268 L 264.801 731.268 L 266.229 743.25 L 266.229 743.25 Q 266.723 747.389 265.092 749.462 L 265.092 749.462 L 265.092 749.462 Q 263.461 751.534 259.322 752.028 Z  M 209.322 629.179 L 216.414 688.651 L 216.414 688.651 Q 216.933 693.008 220.552 695.559 L 220.552 695.559 L 220.552 695.559 Q 224.17 698.111 235.934 696.708 L 235.934 696.708 L 235.934 696.708 Q 247.697 695.305 250.614 691.975 L 250.614 691.975 L 250.614 691.975 Q 253.531 688.644 253.012 684.287 L 253.012 684.287 L 245.92 624.815 L 245.92 624.815 Q 245.427 620.676 241.808 618.124 L 241.808 618.124 L 241.808 618.124 Q 238.19 615.573 226.426 616.976 L 226.426 616.976 L 226.426 616.976 Q 214.662 618.379 211.745 621.709 L 211.745 621.709 L 211.745 621.709 Q 208.828 625.04 209.322 629.179 L 209.322 629.179 L 209.322 629.179 Z  M 451.399 558.112 L 464.258 665.947 L 464.258 665.947 Q 465.453 675.968 463.486 684.488 L 463.486 684.488 L 463.486 684.488 Q 461.519 693.008 454.692 699.677 L 454.692 699.677 L 454.692 699.677 Q 447.864 706.346 435.183 711.172 L 435.183 711.172 L 435.183 711.172 Q 422.502 715.999 402.242 718.415 L 402.242 718.415 L 402.242 718.415 Q 381.982 720.83 368.522 719.121 L 368.522 719.121 L 368.522 719.121 Q 355.061 717.412 346.857 712.535 L 346.857 712.535 L 346.857 712.535 Q 338.653 707.659 334.738 699.84 L 334.738 699.84 L 334.738 699.84 Q 330.823 692.022 329.628 682.001 L 329.628 682.001 L 316.77 574.166 L 316.77 574.166 Q 316.276 570.027 317.907 567.955 L 317.907 567.955 L 317.907 567.955 Q 319.538 565.882 323.677 565.388 L 323.677 565.388 L 357.879 561.31 L 357.879 561.31 Q 362.018 560.817 364.091 562.447 L 364.091 562.447 L 364.091 562.447 Q 366.163 564.078 366.657 568.217 L 366.657 568.217 L 378.502 667.556 L 378.502 667.556 Q 379.022 671.913 382.64 674.464 L 382.64 674.464 L 382.64 674.464 Q 386.258 677.015 397.586 675.665 L 397.586 675.665 L 397.586 675.665 Q 409.132 674.288 412.049 670.957 L 412.049 670.957 L 412.049 670.957 Q 414.966 667.627 414.447 663.27 L 414.447 663.27 L 402.601 563.931 L 402.601 563.931 Q 402.108 559.792 403.739 557.72 L 403.739 557.72 L 403.739 557.72 Q 405.37 555.647 409.509 555.154 L 409.509 555.154 L 442.622 551.205 L 442.622 551.205 Q 446.761 550.712 448.833 552.342 L 448.833 552.342 L 448.833 552.342 Q 450.906 553.973 451.399 558.112 L 451.399 558.112 L 451.399 558.112 Z  M 607.065 690.677 L 607.065 690.677 L 505.984 702.73 L 505.984 702.73 Q 501.844 703.224 499.772 701.593 L 499.772 701.593 L 499.772 701.593 Q 497.699 699.962 497.206 695.823 L 497.206 695.823 L 480.373 554.658 L 480.373 554.658 Q 479.879 550.518 481.51 548.446 L 481.51 548.446 L 481.51 548.446 Q 483.141 546.373 487.28 545.88 L 487.28 545.88 L 588.361 533.827 L 588.361 533.827 Q 592.501 533.333 594.573 534.964 L 594.573 534.964 L 594.573 534.964 Q 596.646 536.595 597.139 540.734 L 597.139 540.734 L 600.178 566.222 L 600.178 566.222 Q 600.672 570.361 599.041 572.434 L 599.041 572.434 L 599.041 572.434 Q 597.41 574.506 593.271 575 L 593.271 575 L 533.145 582.169 L 535.145 598.944 L 577.626 593.878 L 577.626 593.878 Q 581.765 593.385 583.837 595.016 L 583.837 595.016 L 583.837 595.016 Q 585.91 596.646 586.403 600.786 L 586.403 600.786 L 589.183 624.095 L 589.183 624.095 Q 589.676 628.234 588.045 630.307 L 588.045 630.307 L 588.045 630.307 Q 586.415 632.379 582.275 632.873 L 582.275 632.873 L 539.795 637.938 L 542.029 656.673 L 602.155 649.504 L 602.155 649.504 Q 606.294 649.01 608.367 650.641 L 608.367 650.641 L 608.367 650.641 Q 610.439 652.272 610.933 656.411 L 610.933 656.411 L 613.972 681.899 L 613.972 681.899 Q 614.466 686.038 612.835 688.111 L 612.835 688.111 L 612.835 688.111 Q 611.204 690.183 607.065 690.677 Z  M 713.374 678 L 713.374 678 L 644.534 686.209 L 644.534 686.209 Q 640.395 686.702 638.323 685.071 L 638.323 685.071 L 638.323 685.071 Q 636.25 683.441 635.757 679.301 L 635.757 679.301 L 632.717 653.813 L 632.717 653.813 Q 632.224 649.674 633.855 647.602 L 633.855 647.602 L 633.855 647.602 Q 635.486 645.529 639.625 645.036 L 639.625 645.036 L 698.226 638.048 L 698.226 638.048 Q 701.058 637.71 702.253 635.69 L 702.253 635.69 L 702.253 635.69 Q 703.448 633.669 703.136 631.055 L 703.136 631.055 L 703.136 631.055 Q 702.695 627.352 701.071 625.778 L 701.071 625.778 L 701.071 625.778 Q 699.447 624.204 696.589 624.324 L 696.589 624.324 L 663.367 623.645 L 663.367 623.645 Q 647.858 623.285 637.664 616.547 L 637.664 616.547 L 637.664 616.547 Q 627.47 609.808 625.288 591.509 L 625.288 591.509 L 622.561 568.635 L 622.561 568.635 Q 620.353 550.118 631.152 538.777 L 631.152 538.777 L 631.152 538.777 Q 641.952 527.436 663.083 524.917 L 663.083 524.917 L 724.08 517.643 L 724.08 517.643 Q 728.219 517.15 730.292 518.781 L 730.292 518.781 L 730.292 518.781 Q 732.364 520.411 732.858 524.551 L 732.858 524.551 L 735.949 550.474 L 735.949 550.474 Q 736.443 554.614 734.812 556.686 L 734.812 556.686 L 734.812 556.686 Q 733.181 558.759 729.042 559.252 L 729.042 559.252 L 678.283 565.305 L 678.283 565.305 Q 675.451 565.642 674.147 567.676 L 674.147 567.676 L 674.147 567.676 Q 672.843 569.709 673.181 572.541 L 673.181 572.541 L 673.181 572.541 Q 673.519 575.373 675.277 577.152 L 675.277 577.152 L 675.277 577.152 Q 677.036 578.931 679.894 578.811 L 679.894 578.811 L 712.873 579.298 L 712.873 579.298 Q 728.382 579.658 738.684 586.383 L 738.684 586.383 L 738.684 586.383 Q 748.987 593.109 751.169 611.408 L 751.169 611.408 L 753.897 634.282 L 753.897 634.282 Q 756.105 652.799 745.196 664.153 L 745.196 664.153 L 745.196 664.153 Q 734.288 675.506 713.374 678 Z  M 854.104 661.219 L 854.104 661.219 L 818.812 665.427 L 818.812 665.427 Q 814.673 665.921 812.601 664.29 L 812.601 664.29 L 812.601 664.29 Q 810.528 662.659 810.035 658.52 L 810.035 658.52 L 797.28 551.557 L 765.256 555.376 L 765.256 555.376 Q 761.117 555.869 759.045 554.238 L 759.045 554.238 L 759.045 554.238 Q 756.972 552.607 756.479 548.468 L 756.479 548.468 L 753.336 522.109 L 753.336 522.109 Q 752.842 517.97 754.473 515.897 L 754.473 515.897 L 754.473 515.897 Q 756.104 513.825 760.243 513.331 L 760.243 513.331 L 875.266 499.615 L 875.266 499.615 Q 879.405 499.122 881.478 500.753 L 881.478 500.753 L 881.478 500.753 Q 883.55 502.384 884.044 506.523 L 884.044 506.523 L 887.187 532.882 L 887.187 532.882 Q 887.681 537.021 886.05 539.094 L 886.05 539.094 L 886.05 539.094 Q 884.419 541.166 880.28 541.66 L 880.28 541.66 L 848.256 545.478 L 861.011 652.442 L 861.011 652.442 Q 861.504 656.581 859.874 658.653 L 859.874 658.653 L 859.874 658.653 Q 858.243 660.726 854.104 661.219 Z  M 306.869 525.413 L 306.869 525.413 L 273.32 529.414 L 273.32 529.414 Q 269.181 529.907 267.109 528.276 L 267.109 528.276 L 267.109 528.276 Q 265.036 526.645 264.543 522.506 L 264.543 522.506 L 263.114 510.525 L 263.114 510.525 Q 237.402 509.835 227.215 499.45 L 227.215 499.45 L 227.215 499.45 Q 217.029 489.065 215.08 472.726 L 215.08 472.726 L 206.456 400.401 L 206.456 400.401 Q 205.261 390.38 207.228 381.86 L 207.228 381.86 L 207.228 381.86 Q 209.195 373.34 216.009 366.562 L 216.009 366.562 L 216.009 366.562 Q 222.824 359.784 235.723 354.932 L 235.723 354.932 L 235.723 354.932 Q 248.622 350.079 268.882 347.663 L 268.882 347.663 L 268.882 347.663 Q 289.141 345.248 302.711 346.944 L 302.711 346.944 L 302.711 346.944 Q 316.28 348.64 324.497 353.625 L 324.497 353.625 L 324.497 353.625 Q 332.714 358.611 336.629 366.43 L 336.629 366.43 L 336.629 366.43 Q 340.544 374.248 341.739 384.269 L 341.739 384.269 L 350.364 456.595 L 350.364 456.595 Q 351.351 464.873 350.234 472.187 L 350.234 472.187 L 350.234 472.187 Q 349.118 479.5 344.975 485.518 L 344.975 485.518 L 344.975 485.518 Q 340.832 491.536 332.912 496.457 L 332.912 496.457 L 332.912 496.457 Q 324.992 501.379 312.347 504.654 L 312.347 504.654 L 313.776 516.636 L 313.776 516.636 Q 314.27 520.775 312.639 522.847 L 312.639 522.847 L 312.639 522.847 Q 311.008 524.92 306.869 525.413 Z  M 256.869 402.564 L 263.96 462.037 L 263.96 462.037 Q 264.48 466.394 268.098 468.945 L 268.098 468.945 L 268.098 468.945 Q 271.717 471.496 283.48 470.094 L 283.48 470.094 L 283.48 470.094 Q 295.244 468.691 298.161 465.36 L 298.161 465.36 L 298.161 465.36 Q 301.078 462.03 300.559 457.673 L 300.559 457.673 L 293.467 398.2 L 293.467 398.2 Q 292.973 394.061 289.355 391.51 L 289.355 391.51 L 289.355 391.51 Q 285.737 388.959 273.973 390.361 L 273.973 390.361 L 273.973 390.361 Q 262.209 391.764 259.292 395.095 L 259.292 395.095 L 259.292 395.095 Q 256.375 398.425 256.869 402.564 L 256.869 402.564 L 256.869 402.564 Z  M 498.946 331.498 L 511.804 439.332 L 511.804 439.332 Q 512.999 449.353 511.033 457.873 L 511.033 457.873 L 511.033 457.873 Q 509.066 466.393 502.238 473.063 L 502.238 473.063 L 502.238 473.063 Q 495.411 479.732 482.73 484.558 L 482.73 484.558 L 482.73 484.558 Q 470.049 489.384 449.789 491.8 L 449.789 491.8 L 449.789 491.8 Q 429.529 494.216 416.069 492.507 L 416.069 492.507 L 416.069 492.507 Q 402.608 490.798 394.404 485.921 L 394.404 485.921 L 394.404 485.921 Q 386.2 481.044 382.285 473.226 L 382.285 473.226 L 382.285 473.226 Q 378.37 465.407 377.175 455.386 L 377.175 455.386 L 364.316 347.552 L 364.316 347.552 Q 363.823 343.413 365.454 341.34 L 365.454 341.34 L 365.454 341.34 Q 367.085 339.268 371.224 338.774 L 371.224 338.774 L 405.426 334.696 L 405.426 334.696 Q 409.565 334.202 411.637 335.833 L 411.637 335.833 L 411.637 335.833 Q 413.71 337.464 414.203 341.603 L 414.203 341.603 L 426.049 440.941 L 426.049 440.941 Q 426.568 445.298 430.187 447.85 L 430.187 447.85 L 430.187 447.85 Q 433.805 450.401 445.133 449.05 L 445.133 449.05 L 445.133 449.05 Q 456.679 447.673 459.596 444.343 L 459.596 444.343 L 459.596 444.343 Q 462.513 441.012 461.994 436.655 L 461.994 436.655 L 450.148 337.317 L 450.148 337.317 Q 449.655 333.178 451.286 331.105 L 451.286 331.105 L 451.286 331.105 Q 452.916 329.033 457.056 328.539 L 457.056 328.539 L 490.168 324.591 L 490.168 324.591 Q 494.307 324.097 496.38 325.728 L 496.38 325.728 L 496.38 325.728 Q 498.452 327.359 498.946 331.498 L 498.946 331.498 L 498.946 331.498 Z  M 642.848 465.465 L 550.045 476.531 L 550.045 476.531 Q 545.906 477.025 543.833 475.394 L 543.833 475.394 L 543.833 475.394 Q 541.761 473.763 541.267 469.624 L 541.267 469.624 L 538.176 443.7 L 538.176 443.7 Q 537.682 439.561 539.313 437.488 L 539.313 437.488 L 539.313 437.488 Q 540.944 435.416 545.083 434.922 L 545.083 434.922 L 566.65 432.351 L 557.922 359.154 L 536.355 361.726 L 536.355 361.726 Q 532.216 362.219 530.143 360.588 L 530.143 360.588 L 530.143 360.588 Q 528.071 358.957 527.577 354.818 L 527.577 354.818 L 524.434 328.459 L 524.434 328.459 Q 523.941 324.32 525.571 322.247 L 525.571 322.247 L 525.571 322.247 Q 527.202 320.175 531.341 319.681 L 531.341 319.681 L 624.144 308.615 L 624.144 308.615 Q 628.284 308.121 630.356 309.752 L 630.356 309.752 L 630.356 309.752 Q 632.429 311.383 632.922 315.522 L 632.922 315.522 L 636.065 341.882 L 636.065 341.882 Q 636.559 346.021 634.928 348.093 L 634.928 348.093 L 634.928 348.093 Q 633.297 350.166 629.158 350.66 L 629.158 350.66 L 608.027 353.179 L 616.755 426.376 L 637.886 423.856 L 637.886 423.856 Q 642.025 423.363 644.098 424.994 L 644.098 424.994 L 644.098 424.994 Q 646.17 426.624 646.664 430.764 L 646.664 430.764 L 649.755 456.687 L 649.755 456.687 Q 650.249 460.827 648.618 462.899 L 648.618 462.899 L 648.618 462.899 Q 646.987 464.972 642.848 465.465 L 642.848 465.465 L 642.848 465.465 Z  M 788.37 448.113 L 788.37 448.113 L 680.317 460.997 L 680.317 460.997 Q 676.178 461.491 674.106 459.86 L 674.106 459.86 L 674.106 459.86 Q 672.033 458.229 671.54 454.09 L 671.54 454.09 L 668.059 424.898 L 668.059 424.898 Q 667.565 420.759 668.496 417.444 L 668.496 417.444 L 668.496 417.444 Q 669.426 414.13 671.894 410.742 L 671.894 410.742 L 717.168 340.165 L 670.549 345.724 L 670.549 345.724 Q 666.41 346.218 664.337 344.587 L 664.337 344.587 L 664.337 344.587 Q 662.265 342.956 661.771 338.817 L 661.771 338.817 L 658.628 312.457 L 658.628 312.457 Q 658.135 308.318 659.765 306.246 L 659.765 306.246 L 659.765 306.246 Q 661.396 304.173 665.535 303.679 L 665.535 303.679 L 765.745 291.73 L 765.745 291.73 Q 769.884 291.237 771.957 292.867 L 771.957 292.867 L 771.957 292.867 Q 774.029 294.498 774.523 298.637 L 774.523 298.637 L 778.393 331.097 L 778.393 331.097 Q 778.913 335.454 777.982 338.768 L 777.982 338.768 L 777.982 338.768 Q 777.052 342.083 774.584 345.471 L 774.584 345.471 L 731.343 412.712 L 783.408 406.504 L 783.408 406.504 Q 787.547 406.01 789.62 407.641 L 789.62 407.641 L 789.62 407.641 Q 791.692 409.272 792.186 413.411 L 792.186 413.411 L 795.277 439.335 L 795.277 439.335 Q 795.771 443.474 794.14 445.547 L 794.14 445.547 L 794.14 445.547 Q 792.509 447.619 788.37 448.113 Z " fill="rgb(255,145,77)"/></svg>